<?xml version="1.0" encoding="UTF-8" standalone="no"?>
<!-- Created with Inkscape (http://www.inkscape.org/) -->

<svg
   width="512mm"
   height="512mm"
   viewBox="0 0 512 512"
   version="1.1"
   id="svg1"
   inkscape:version="1.3 (0e150ed6c4, 2023-07-21)"
   sodipodi:docname="logo.svg"
   xmlns:inkscape="http://www.inkscape.org/namespaces/inkscape"
   xmlns:sodipodi="http://sodipodi.sourceforge.net/DTD/sodipodi-0.dtd"
   xmlns="http://www.w3.org/2000/svg"
   xmlns:svg="http://www.w3.org/2000/svg">
  <sodipodi:namedview
     id="namedview1"
     pagecolor="#ffffff"
     bordercolor="#999999"
     borderopacity="1"
     inkscape:showpageshadow="2"
     inkscape:pageopacity="0"
     inkscape:pagecheckerboard="false"
     inkscape:deskcolor="#d1d1d1"
     inkscape:document-units="mm"
     inkscape:zoom="0.25606581"
     inkscape:cx="761.523"
     inkscape:cy="958.73793"
     inkscape:window-width="1920"
     inkscape:window-height="1009"
     inkscape:window-x="-8"
     inkscape:window-y="-8"
     inkscape:window-maximized="1"
     inkscape:current-layer="layer4" />
  <defs
     id="defs1">
    <inkscape:path-effect
       effect="fillet_chamfer"
       id="path-effect11"
       is_visible="true"
       lpeversion="1"
       nodesatellites_param="F,0,0,1,0,0,0,1 @ F,0,0,1,0,0,0,1 @ F,0,0,1,0,0,0,1 @ F,0,0,1,0,0,0,1 | F,0,0,1,0,0,0,1 @ F,0,0,1,0,0,0,1 @ F,0,0,1,0,0,0,1 @ F,0,0,1,0,0,0,1 @ F,0,0,1,0,0,0,1 @ F,0,0,1,0,0,0,1 @ F,0,0,1,0,0,0,1 @ F,0,0,1,0,0,0,1 @ F,0,0,1,0,0,0,1"
       radius="0"
       unit="px"
       method="auto"
       mode="F"
       chamfer_steps="1"
       flexible="false"
       use_knot_distance="true"
       apply_no_radius="true"
       apply_with_radius="true"
       only_selected="false"
       hide_knots="false" />
  </defs>
  <g
     inkscape:groupmode="layer"
     id="layer4"
     inkscape:label="template 1"
     style="display:inline"
     transform="matrix(0.82745603,0,0,0.82745603,-136.40944,651.52398)">
    <g
       id="g11"
       inkscape:label="sharp"
       style="display:none">
      <path
         style="display:inline;fill:#f9f9f9;fill-opacity:1;stroke:#ffffff;stroke-width:1.2;stroke-dasharray:none;stroke-opacity:1"
         d="m 23.312499,33.928928 c -0.292188,-0.023 -0.704128,-0.08674 -0.915423,-0.14166 -1.724967,-0.448326 -3.412982,-1.852452 -4.187459,-3.483215 L 18.035534,29.937498 H 13.799017 9.5624994 V 19.843749 9.7499994 H 23.843749 38.124998 V 19.843749 29.937498 l -4.234375,2.35e-4 -4.234375,2.34e-4 -0.113811,0.276772 c -0.202408,0.492227 -0.860296,1.416477 -1.362108,1.913592 -1.357336,1.344626 -2.989659,1.948417 -4.86783,1.800597 z"
         id="path7"
         transform="matrix(20,0,0,20,0,-960)" />
      <path
         d="M 168.99996,-172 V -788 H 785 v 616 z M 477.348,-280 c 25.43467,0 48.73533,-7.5 69.902,-22.5 C 568.41667,-317.5 584,-337 594,-361 H 763 V -766 H 190.99996 v 405 H 360 c 10,24 25.69933,43.5 47.098,58.5 21.39867,15 44.81533,22.5 70.25,22.5 z"
         id="path1-7"
         style="display:inline;fill:#ff0000;fill-opacity:1"
         inkscape:path-effect="#path-effect11"
         inkscape:original-d="M 168.99996,-172 V -788 H 785 v 616 z M 477.348,-280 q 38.152,0 69.902,-22.5 Q 579,-325 594,-361 H 763 V -766 H 190.99996 v 405 H 360 q 15,36 47.098,58.5 32.098,22.5 70.25,22.5 z" />
    </g>
    <g
       id="g12"
       inkscape:label="rounded"
       style="display:inline">
      <path
         style="display:inline;fill:#ffffff;fill-opacity:1;stroke:#ffffff;stroke-width:0.735;stroke-dasharray:none;stroke-opacity:1"
         d="m 22.618395,33.969363 c -1.754419,-0.332908 -3.095109,-1.285719 -3.930896,-2.793636 -0.321225,-0.579551 -0.566393,-0.804134 -1.095836,-1.003826 -0.370017,-0.13956 -0.403144,-0.140798 -4.264132,-0.159344 l -3.8912169,-0.01869 0.016218,-9.514239 0.016218,-9.514239 0.1596626,-0.310242 C 9.8282805,10.266782 10.21079,9.9696723 10.62539,9.8807566 c 0.344928,-0.073974 25.636394,-0.1010857 26.078866,-0.027956 0.411151,0.067953 0.855099,0.3879914 1.071173,0.7722004 l 0.19332,0.34375 0.0166,9.515625 0.0166,9.515624 -3.641604,4.72e-4 c -3.74469,4.86e-4 -4.176606,0.02378 -4.716529,0.254396 -0.409077,0.174727 -0.589729,0.363163 -0.930865,0.97098 -0.748219,1.33313 -1.831303,2.176239 -3.36921,2.622703 -0.709181,0.205881 -1.980137,0.262221 -2.725353,0.120814 z"
         id="path12"
         transform="matrix(20,0,0,20,0,-960)" />
      <path
         d="m 220,-170 q -22.008,0 -37.886,-15.878 -15.878,-15.878 -15.878,-37.886 v -508.472 q 0,-22.008 15.878,-37.886 Q 197.992,-786 220,-786 h 508.472 q 22.008,0 37.886,15.878 15.878,15.878 15.878,37.886 v 508.472 q 0,22.008 -15.878,37.886 Q 750.48,-170 728.472,-170 Z m 254.632,-108 q 33.203,0 61.382,-16.4 28.18,-16.4 42.222,-47.35 5,-8.75 15.69,-13 10.689,-4.25 21.807,-4.25 h 144.503 v -373 q 0,-14 -9,-23 -9,-9 -23,-9 h -508 q -14,0 -23,9 -9,9 -9,23 v 373 h 145 q 11,0 21.5,4.25 10.5,4.25 15.63,13.125 13.863,30.55 42.184,47.088 28.322,16.537 62.082,16.537 z"
         id="path1-76"
         style="display:inline;fill:#ff0000" />
    </g>
    <path
       sodipodi:type="star"
       style="display:inline;fill:#ff0000;fill-opacity:1;stroke:none;stroke-width:0;stroke-dasharray:none;stroke-opacity:1"
       id="path11"
       inkscape:flatsided="true"
       sodipodi:sides="3"
       sodipodi:cx="19.25"
       sodipodi:cy="23.5"
       sodipodi:r1="4.75"
       sodipodi:r2="2.375"
       sodipodi:arg1="0"
       sodipodi:arg2="1.0471976"
       inkscape:rounded="0"
       inkscape:randomized="0"
       d="m 24,23.5 -7.125,4.113621 0,-8.227242 z"
       transform="matrix(20,0,0,20,71.25,-960)"
       inkscape:transform-center-x="-23.75"
       inkscape:label="triangle" />
  </g>
</svg>
